<svg preserveAspectRatio="none" width="100%" height="100%" overflow="visible" style="display: block;" viewBox="0 0 122 13.9154" fill="none" xmlns="http://www.w3.org/2000/svg">
<g id="Group 21">
<path id="Vector" fill-rule="evenodd" clip-rule="evenodd" d="M27.2516 1.09249C26.5246 1.39031 25.9623 1.80521 25.5641 2.3384C25.1665 2.87279 24.9671 3.48945 24.9671 4.18656C24.9671 5.58799 25.7659 6.6898 27.361 7.492C27.8521 7.73874 28.4826 7.99698 29.2555 8.26116C30.0277 8.52773 30.5682 8.78352 30.8746 9.0321C31.1828 9.28011 31.3352 9.62537 31.3352 10.0703C31.3352 10.4623 31.1929 10.7668 30.9082 10.9829C30.6235 11.1991 30.2365 11.3078 29.7448 11.3078C28.979 11.3078 28.4244 11.1475 28.0832 10.8274C27.7415 10.5074 27.5715 10.0096 27.5715 9.33532H24.5948C24.5948 10.1657 24.7996 10.8995 25.2077 11.5372C25.6165 12.1742 26.2258 12.6762 27.0357 13.0418C27.8439 13.4087 28.7479 13.5918 29.7454 13.5918C31.1605 13.5918 32.2745 13.2784 33.0862 12.6491C33.8984 12.0199 34.303 11.1541 34.303 10.0529C34.303 8.67484 33.6385 7.59224 32.3074 6.8087C31.761 6.48565 31.0623 6.1836 30.21 5.90442C29.3602 5.62403 28.7649 5.3538 28.4262 5.09084C28.0874 4.82843 27.9191 4.53542 27.9191 4.21178C27.9191 3.84311 28.0727 3.53869 28.3797 3.29971C28.6873 3.06014 29.1055 2.94005 29.636 2.94005C30.16 2.94005 30.5765 3.08175 30.8835 3.36456C31.1899 3.64736 31.3446 4.04485 31.3446 4.55823H34.303C34.303 3.79207 34.1096 3.10817 33.7202 2.51193C33.3314 1.91509 32.7856 1.45515 32.0839 1.13212C31.381 0.809083 30.5883 0.647565 29.703 0.647565C28.7961 0.647565 27.9786 0.795871 27.2516 1.09249Z" fill="var(--fill-0, white)"/>
<path id="Vector_2" fill-rule="evenodd" clip-rule="evenodd" d="M37.8624 0.971197V13.2683H46.5828V10.9872H40.9141V8.04867H45.714V5.85323H40.9141V3.25983H46.5998V0.971197H37.8624Z" fill="var(--fill-0, white)"/>
<path id="Vector_3" fill-rule="evenodd" clip-rule="evenodd" d="M50.159 0.971197V13.2683H53.159V8.91899H54.7811L56.9781 13.2683H60.1908V13.1411L57.5937 8.17585C58.3394 7.82714 58.8869 7.37233 59.2376 6.80971C59.5874 6.24708 59.7628 5.53791 59.7628 4.68341C59.7628 3.50188 59.3469 2.58819 58.5158 1.94116C57.6837 1.29471 56.5308 0.971197 55.0556 0.971197H50.159ZM53.159 3.25163H55.0556C55.6193 3.25163 56.0463 3.40166 56.3371 3.70466C56.6284 4.0065 56.7732 4.4232 56.7732 4.9536C56.7732 5.48397 56.6299 5.8972 56.3412 6.19315C56.0534 6.49027 55.6249 6.63855 55.0556 6.63855H53.159V3.25163Z" fill="var(--fill-0, white)"/>
<path id="Vector_4" fill-rule="evenodd" clip-rule="evenodd" d="M63.4268 0.971197V13.2683H66.3995V9.09543H68.2987C69.7993 9.09543 70.9812 8.73675 71.8433 8.01939C72.7039 7.30203 73.135 6.3426 73.135 5.14349C73.135 4.33235 72.9367 3.60737 72.5372 2.96855C72.1386 2.32914 71.5774 1.83683 70.852 1.49105C70.1256 1.14409 69.2909 0.971197 68.3485 0.971197H63.4268ZM66.3995 3.25983H68.3826C68.9188 3.26569 69.3423 3.44035 69.6529 3.7832C69.963 4.12723 70.118 4.58554 70.118 5.1593C70.118 5.68385 69.968 6.0894 69.6656 6.37661C69.3626 6.66376 68.9239 6.80737 68.3485 6.80737H66.3995V3.25983Z" fill="var(--fill-0, white)"/>
<path id="Vector_5" fill-rule="evenodd" clip-rule="evenodd" d="M78.0551 1.09249C77.3282 1.39031 76.7665 1.80521 76.3689 2.3384C75.9704 2.87279 75.7722 3.48945 75.7722 4.18656C75.7722 5.58799 76.5697 6.6898 78.1654 7.492C78.6554 7.73874 79.2873 7.99698 80.0595 8.26116C80.8316 8.52773 81.371 8.78352 81.6785 9.0321C81.9855 9.28011 82.1396 9.62537 82.1396 10.0703C82.1396 10.4623 81.9972 10.7668 81.7126 10.9829C81.4269 11.1991 81.0405 11.3078 80.55 11.3078C79.7829 11.3078 79.2304 11.1475 78.8877 10.8274C78.5477 10.5074 78.3769 10.0096 78.3769 9.33532H75.4006C75.4006 10.1657 75.6049 10.8995 76.0131 11.5372C76.4223 12.1742 77.0313 12.6762 77.8406 13.0418C78.6488 13.4087 79.5521 13.5918 80.55 13.5918C81.9652 13.5918 83.0784 13.2784 83.8908 12.6491C84.7026 12.0199 85.1087 11.1541 85.1087 10.0529C85.1087 8.67484 84.4428 7.59224 83.113 6.8087C82.5655 6.48565 81.8661 6.1836 81.0156 5.90442C80.1642 5.62403 79.5689 5.3538 79.2314 5.09084C78.8933 4.82843 78.7241 4.53542 78.7241 4.21178C78.7241 3.84311 78.8766 3.53869 79.1846 3.29971C79.4916 3.06014 79.91 2.94005 80.4407 2.94005C80.9648 2.94005 81.3801 3.08175 81.6887 3.36456C81.9947 3.64736 82.1487 4.04485 82.1487 4.55823H85.1072C85.1072 3.79207 84.9135 3.10817 84.5247 2.51193C84.1358 1.91509 83.5898 1.45515 82.8878 1.13212C82.1858 0.809083 81.3923 0.647565 80.5088 0.647565C79.6004 0.647565 78.782 0.795871 78.0551 1.09249Z" fill="var(--fill-0, white)"/>
<path id="Vector_6" fill-rule="evenodd" clip-rule="evenodd" d="M87.6977 0.971197V3.25983H91.3485V13.2683H94.335V3.25983H98.0529V0.971197H87.6977Z" fill="var(--fill-0, white)"/>
<path id="Vector_7" fill-rule="evenodd" clip-rule="evenodd" d="M103.26 0.971197L98.7006 13.2683H101.903L102.621 10.9709H106.728L107.455 13.2683H110.674L106.079 0.971197H103.26ZM104.67 4.41675L106.011 8.6822H103.338L104.67 4.41675Z" fill="var(--fill-0, white)"/>
<path id="Vector_8" fill-rule="evenodd" clip-rule="evenodd" d="M111.645 0.971197V3.25983H115.296V13.2683H118.282V3.25983H122V0.971197H111.645Z" fill="var(--fill-0, white)"/>
<path id="Vector_9" fill-rule="evenodd" clip-rule="evenodd" d="M19.3342 5.06192e-05H6.70424L6.70485 0.0031165C6.48947 0.011701 6.31643 0.188909 6.31643 0.408425C6.31643 0.52493 6.36543 0.628554 6.44285 0.70275L6.44102 0.704591L9.1753 3.44977C9.33441 3.60981 9.33441 3.87042 9.17591 4.03045L4.6773 8.55139C4.56174 8.66851 4.58957 8.86595 4.73358 8.94443L5.29326 9.25101C5.39609 9.30743 5.55708 9.29579 5.65748 9.2351C5.79666 9.15107 5.95821 9.10202 6.13186 9.10202C6.25106 9.10202 6.3636 9.12657 6.46766 9.16886C6.52637 9.19275 6.59291 9.18543 6.64009 9.14248L7.70804 8.1645C7.70682 8.14426 7.702 8.12464 7.702 8.1038C7.702 7.58256 8.11888 7.16008 8.63316 7.16008C9.06641 7.16008 9.42703 7.46056 9.53108 7.86646L10.5664 8.31166C10.5984 8.32513 10.6335 8.31964 10.6625 8.30002C10.812 8.19454 10.9923 8.13135 11.1877 8.13135C11.2803 8.13135 11.3698 8.1467 11.4546 8.17309C11.486 8.18351 11.5199 8.17614 11.5441 8.15285L13.332 6.38812C13.3581 6.36296 13.3714 6.32555 13.3708 6.28941C13.355 5.36226 14.0309 5.25495 14.2965 5.24575C14.6995 5.23045 15.0383 5.51191 15.1636 5.8804C15.1763 5.91537 15.2023 5.9442 15.2374 5.95706L16.37 6.34949C16.413 6.36479 16.4584 6.35254 16.4922 6.3225C16.6568 6.17168 16.8741 6.07906 17.113 6.07906C17.1978 6.07906 17.3454 6.13304 17.4313 6.03859L19.6785 3.71773C19.7178 3.67788 19.7396 3.62392 19.7396 3.56689V0.410878C19.7396 0.184003 19.5581 5.06192e-05 19.3342 5.06192e-05Z" fill="var(--fill-0, white)"/>
<path id="Vector_10" fill-rule="evenodd" clip-rule="evenodd" d="M19.7335 5.42788C19.7335 5.30593 19.5871 5.24498 19.5028 5.33277L18.0721 6.80841C18.0408 6.84013 18.0288 6.88588 18.036 6.93041C18.0727 7.17309 18.0239 7.44444 17.7054 7.74324C17.5374 7.90118 17.3236 8.00971 17.0942 8.00422C16.7203 7.99385 16.4054 7.75788 16.2681 7.42675C16.2537 7.39198 16.2266 7.36336 16.1904 7.35055L15.0084 6.94017C14.9675 6.92614 14.9235 6.93651 14.8892 6.96452C14.7302 7.09501 14.5285 7.17431 14.3081 7.17431C14.2082 7.17431 14.1136 7.15418 14.0233 7.12429C14.0233 7.12429 12.6745 8.44571 12.1952 8.92313C12.1368 8.9823 12.1362 8.98657 12.1494 9.10547C12.1494 9.62377 11.7352 10.0439 11.2227 10.0439C10.7898 10.0439 10.4285 9.74272 10.3267 9.33661C10.3159 9.29513 10.2894 9.25975 10.2503 9.24267L9.37235 8.86584C9.32782 8.84571 9.2778 8.85547 9.23865 8.88536C9.08331 9.00548 8.89065 9.07863 8.68111 9.07863C8.58113 9.07863 8.4848 9.06216 8.39447 9.03171C8.34089 9.01402 8.28248 9.02317 8.24034 9.06094L7.17213 10.0391C7.13598 10.072 7.11672 10.1177 7.11133 10.1665C7.06436 10.6397 6.67172 11.0092 6.19125 11.0092C5.8191 11.0092 5.50179 10.786 5.35483 10.4653C5.3163 10.3811 5.24529 10.3177 5.16579 10.2732L3.9633 9.61589C3.86877 9.56404 3.75255 9.58173 3.67668 9.65793L0.118622 13.2197L0.117418 13.2209L0.112601 13.2258L0.113805 13.2264C0.0439564 13.2995 0 13.3983 0 13.5081C0 13.7331 0.179439 13.9154 0.402232 13.9154H12.0736C12.2969 13.9154 12.6095 13.7855 12.7684 13.6264L12.9973 13.3965L13.0039 13.3898L15.743 10.6415C15.9014 10.483 16.1597 10.483 16.3181 10.6415L19.0494 13.3837C19.1228 13.4599 19.224 13.5081 19.3378 13.5081C19.5594 13.5081 19.7401 13.3264 19.7401 13.102L19.7335 5.42788Z" fill="var(--fill-0, white)"/>
</g>
</svg>
