<svg width="37.303" height="37.002" viewBox="0 0 37.303 37.002" fill="none" xmlns="http://www.w3.org/2000/svg">
<g transform="translate(13 0)">
<g id="Group 177181">
<path id="Vector" d="M4.45791 7.53944L5.762 8.69999L7.62203 6.3482" stroke="black" stroke-miterlimit="10" stroke-linecap="round" stroke-linejoin="round"/>
<path id="Vector_2" d="M6.51259 1.04779L5.86619 0.5L5.21979 1.04779C3.88269 2.18085 2.24074 2.89352 0.5 3.09633V7.26631C0.5 9.67757 1.82605 11.8934 3.95087 13.0325L5.86619 14.0592L7.78151 13.0325C9.90627 11.8934 11.2324 9.67757 11.2324 7.26631V3.09633C9.4917 2.89352 7.84969 2.18085 6.51259 1.04779Z" stroke="black" stroke-miterlimit="10" stroke-linecap="round" stroke-linejoin="round"/>
</g>
</g>
<g transform="translate(0 14)">
<g id="Group 177180">
<path id="path567" d="M0.540079 10.3562L4.28544 0.861581C4.40106 0.568387 4.73249 0.424419 5.02566 0.540119L8.0059 1.71596C8.29906 1.83159 8.44302 2.16306 8.32733 2.45625L4.58197 11.951C4.46635 12.2441 4.13491 12.388 3.84175 12.2723L0.861511 11.0966C0.568344 10.9809 0.424463 10.6494 0.540079 10.3562Z" stroke="black" stroke-miterlimit="10" stroke-linecap="round" stroke-linejoin="round"/>
<path id="path571" d="M26.7869 15.6671L24.8372 14.1647" stroke="black" stroke-miterlimit="10" stroke-linecap="round" stroke-linejoin="round"/>
<path id="path575" d="M24.1789 17.7666L22.4456 16.432" stroke="black" stroke-miterlimit="10" stroke-linecap="round" stroke-linejoin="round"/>
<path id="path579" d="M21.3128 19.6787L20.0776 18.7226" stroke="black" stroke-miterlimit="10" stroke-linecap="round" stroke-linejoin="round"/>
<path id="path583" d="M8.28594 16.5383C7.67594 16.021 7.60072 15.1072 8.11796 14.4971L9.47197 12.9076C9.98921 12.2976 10.903 12.2223 11.513 12.7396C12.123 13.2568 12.1982 14.1707 11.6809 14.7807L10.3269 16.3703C9.80969 16.9803 8.89594 17.0556 8.28594 16.5383Z" stroke="black" stroke-miterlimit="10" stroke-linecap="round" stroke-linejoin="round"/>
<path id="path587" d="M10.4979 18.4114C9.88795 17.8941 9.8128 16.9803 10.33 16.3703L11.6841 14.7808C12.2012 14.1707 13.115 14.0955 13.725 14.6128C14.335 15.13 14.4102 16.0439 13.893 16.6539L12.5389 18.2434C12.0217 18.8535 11.1079 18.9287 10.4979 18.4114Z" stroke="black" stroke-miterlimit="10" stroke-linecap="round" stroke-linejoin="round"/>
<path id="path591" d="M12.7053 20.2846C12.0953 19.7673 12.0201 18.8535 12.5373 18.2434L13.8914 16.6539C14.4086 16.0439 15.3224 15.9687 15.9324 16.4859C16.5423 17.0032 16.6175 17.917 16.1003 18.5271L14.7463 20.1166C14.229 20.7267 13.3153 20.8019 12.7053 20.2846Z" stroke="black" stroke-miterlimit="10" stroke-linecap="round" stroke-linejoin="round"/>
<path id="path595" d="M14.9173 22.1578C14.3073 21.6405 14.2321 20.7267 14.7493 20.1166L16.1034 18.5271C16.6206 17.9171 17.5344 17.8418 18.1443 18.3591C18.7543 18.8763 18.8296 19.7902 18.3123 20.4002L16.9583 21.9898C16.4411 22.5998 15.5273 22.6751 14.9173 22.1578Z" stroke="black" stroke-miterlimit="10" stroke-linecap="round" stroke-linejoin="round"/>
<path id="path599" d="M29.2137 13.3764L28.4854 12.8388L25.06 10.3106L24.6675 10.0347C21.4337 10.584 19.2658 8.81199 18.3833 7.89041C18.1238 7.61927 17.6953 7.60897 17.4161 7.8598C14.3839 10.5834 12.6279 9.88528 11.7754 9.07509C11.3654 8.68555 11.436 8.01407 11.912 7.70853C13.5418 6.66234 15.0637 5.33814 16.1511 4.30612L15.9575 4.23359C15.2691 3.9756 14.5457 3.82345 13.8118 3.78218L11.8065 3.66955C11.5439 3.6548 11.2804 3.65151 11.0179 3.66838C10.5446 3.69884 10.0693 3.61966 9.62966 3.43567L8.17778 2.8281L4.61698 11.8548L7.432 13.6303L8.3229 14.2566L9.47212 12.9077C9.98929 12.2975 10.903 12.2224 11.513 12.7396C12.123 13.2569 12.1983 14.1707 11.681 14.7808C12.1983 14.1707 13.112 14.0955 13.722 14.6128C14.332 15.1301 14.4072 16.0439 13.89 16.654C14.4072 16.0439 15.321 15.9687 15.931 16.486C16.541 17.0032 16.6162 17.9171 16.099 18.5271C16.6162 17.9171 17.53 17.8418 18.14 18.3591C18.75 18.8764 18.8252 19.7903 18.3079 20.4002L17.7587 21.045L18.9677 21.9374C19.6391 22.4329 20.5853 22.376 21.1618 21.7727C21.7229 21.1856 21.7563 20.3018 21.3078 19.6787L21.914 20.1261C22.6053 20.6364 23.5845 20.5581 24.1527 19.9136C24.7032 19.2893 24.6893 18.3734 24.1752 17.7666L24.5158 18.0179C25.175 18.5044 26.1016 18.4603 26.6815 17.8816C27.2981 17.2663 27.3145 16.3025 26.7842 15.6671L27.2955 16.0446C28.0102 16.572 29.0166 16.4366 29.5659 15.7338C30.1393 15 29.963 13.9294 29.2137 13.3764Z" stroke="black" stroke-miterlimit="10" stroke-linecap="round" stroke-linejoin="round"/>
<path id="path603" d="M18.9461 2.82614L21.0253 3.15571L23.5654 3.55839L25.1804 3.81441C25.7979 3.91221 26.4302 3.84998 27.0166 3.63348L29.1314 2.85272L32.6108 11.6731L29.5639 13.6304L24.689 10.0323C21.4467 10.59 19.2734 8.81346 18.3895 7.89035C18.1298 7.61921 17.7015 7.60891 17.4223 7.85974C14.3899 10.5833 12.634 9.88522 11.7815 9.0751C11.3715 8.68549 11.4421 8.01408 11.9181 7.70854C14.0486 6.34096 15.9956 4.4978 17.0273 3.45401C17.5279 2.94753 18.2427 2.7146 18.9461 2.82614Z" stroke="black" stroke-miterlimit="10" stroke-linecap="round" stroke-linejoin="round"/>
<path id="path607" d="M33.017 0.861538L34.461 4.52201L35.4003 6.90314L36.7624 10.3562C36.8781 10.6494 36.7342 10.9808 36.4409 11.0965L33.4607 12.2724C33.1676 12.388 32.8361 12.2441 32.7205 11.9509L28.9751 2.45621C28.8595 2.16309 29.0034 1.83162 29.2966 1.71592L32.2768 0.540076C32.57 0.42445 32.9014 0.568417 33.017 0.861538Z" stroke="black" stroke-miterlimit="10" stroke-linecap="round" stroke-linejoin="round"/>
</g>
</g>
</svg>
