<svg preserveAspectRatio="none" overflow="visible" style="display: block;" width="33.3451" height="36" viewBox="0 0 33.3451 36" fill="none" xmlns="http://www.w3.org/2000/svg">
<g id="Group 177204">
<path id="Vector" d="M15.8031 18.2662C16.0883 18.3014 16.3785 18.3197 16.6728 18.3197C16.9672 18.3197 17.2573 18.3014 17.5426 18.2662" stroke="#151419" stroke-linecap="round" stroke-linejoin="round"/>
<path id="Vector_2" d="M19.6737 11.2535C19.6737 12.0324 19.3582 12.7373 18.8491 13.2486C18.3378 13.7606 17.6315 14.0775 16.8505 14.0775C16.0695 14.0775 15.3632 13.7606 14.8519 13.2486C14.3427 12.7373 14.0273 12.0324 14.0273 11.2535C14.0273 9.69437 15.2913 8.43029 16.8505 8.43029C18.4096 8.43029 19.6737 9.69437 19.6737 11.2535Z" stroke="#151419" stroke-linecap="round" stroke-linejoin="round"/>
<path id="Vector_3" d="M19.6737 11.2535C19.6737 12.0324 19.3582 12.7373 18.8491 13.2486C18.3378 13.7606 17.6315 14.0775 16.8505 14.0775C16.0695 14.0775 15.3632 13.7606 14.8519 13.2486C14.3427 12.7373 14.0273 12.0324 14.0273 11.2535C14.0273 9.69437 15.2913 8.43029 16.8505 8.43029C18.4096 8.43029 19.6737 9.69437 19.6737 11.2535Z" stroke="#151419" stroke-linecap="round" stroke-linejoin="round"/>
<path id="Vector_4" d="M20.1687 17.3958V15.8965C20.1687 15.6775 20.1476 15.4641 20.1067 15.257C19.9785 14.5972 19.6539 14.0077 19.1968 13.5507C19.0884 13.4422 18.9722 13.3408 18.8497 13.2486" stroke="#151419" stroke-linecap="round" stroke-linejoin="round"/>
<path id="Vector_5" d="M13.5328 17.5845V15.8965C13.5328 15.6775 13.5539 15.4641 13.5947 15.257C13.7539 14.4408 14.213 13.731 14.8525 13.2486" stroke="#151419" stroke-linecap="round" stroke-linejoin="round"/>
<path id="Vector_6" d="M8.30618 21.3488H25.0389" stroke="#151419" stroke-linecap="round" stroke-linejoin="round"/>
<path id="Vector_7" d="M11.4094 24.2225H21.9361" stroke="#151419" stroke-linecap="round" stroke-linejoin="round"/>
<path id="Vector_8" d="M0.5 8.37521V32.6232C0.5 34.212 1.78803 35.5 3.37676 35.5H29.9683C31.557 35.5 32.8451 34.212 32.8451 32.6232V27.9113V25.4465V3.37676C32.8451 1.78803 31.557 0.5 29.9683 0.5H3.37676C1.78803 0.5 0.5 1.78803 0.5 3.37676V5.91042M17.5423 18.2662C18.488 18.1507 19.3754 17.8479 20.1676 17.3958C21.0958 16.8669 21.8923 16.1331 22.4951 15.257C23.2796 14.119 23.7387 12.7401 23.7387 11.2535C23.7387 10.7965 23.6951 10.3493 23.6113 9.9162C22.9873 6.65352 20.1176 4.18803 16.6725 4.18803C12.7704 4.18803 9.60634 7.35141 9.60634 11.2535C9.60634 11.2901 9.60634 11.3268 9.60775 11.3634C9.62887 12.8077 10.0845 14.1472 10.85 15.257C11.5282 16.243 12.4514 17.0479 13.5317 17.5845C14.231 17.9324 14.9958 18.1676 15.8028 18.2662M16.85 8.43028C15.2908 8.43028 14.0268 9.69437 14.0268 11.2535C14.0268 12.0324 14.3423 12.7373 14.8514 13.2486C15.3627 13.7606 16.069 14.0775 16.85 14.0775C17.631 14.0775 18.3373 13.7606 18.8486 13.2486C19.3577 12.7373 19.6732 12.0324 19.6732 11.2535C19.6732 9.69437 18.4092 8.43028 16.85 8.43028Z" stroke="#151419" stroke-linecap="round" stroke-linejoin="round"/>
<path id="Vector_9" d="M10.85 15.2571H0.5V12.7028V8.37522V5.85058" stroke="#151419" stroke-linecap="round" stroke-linejoin="round"/>
<path id="Vector_10" d="M22.4951 15.257H32.8451V6.93873V3.37676C32.8451 1.78803 31.557 0.5 29.9683 0.5H10.4599H4.87747H3.37676C1.78803 0.5 0.5 1.78803 0.5 3.37676V5.91042" stroke="#151419" stroke-linecap="round" stroke-linejoin="round"/>
<path id="Vector_11" d="M9.60775 11.3634L7.85282 9.62394C6.67746 8.45844 4.78239 8.45844 3.60634 9.62394L0.5 12.7028V15.257H10.85" stroke="#151419" stroke-linecap="round" stroke-linejoin="round"/>
<path id="Vector_12" d="M22.4948 15.2571H32.8448V6.93875L31.8532 5.95565C30.6772 4.79016 28.7821 4.79016 27.6068 5.95565L23.611 9.91621" stroke="#151419" stroke-linecap="round" stroke-linejoin="round"/>
<path id="Vector_13" d="M7.6685 4.18782C9.27026 4.18782 10.5688 2.8893 10.5688 1.28754C10.5688 1.01444 10.5302 0.750493 10.4596 0.5H4.87737C4.80681 0.750563 4.76822 1.01444 4.76822 1.28754C4.76822 2.8893 6.06674 4.18782 7.6685 4.18782Z" stroke="#151419" stroke-linecap="round" stroke-linejoin="round"/>
</g>
</svg>
