<svg preserveAspectRatio="none" width="100%" height="100%" overflow="visible" style="display: block;" viewBox="0 0 34 27" fill="none" xmlns="http://www.w3.org/2000/svg">
<g id="Group 176759">
<path id="Vector" d="M26.3262 4.83334V3.38889C26.3262 2.62271 26.0239 1.88791 25.4857 1.34614C24.9476 0.804364 24.2177 0.5 23.4566 0.5H3.36958C2.60852 0.5 1.87863 0.804364 1.34048 1.34614C0.80233 1.88791 0.5 2.62271 0.5 3.38889V16.3889C0.5 17.1551 0.80233 17.8899 1.34048 18.4317C1.87863 18.9734 2.60852 19.2778 3.36958 19.2778H4.80437" stroke="var(--stroke-0, #151419)" stroke-linecap="round" stroke-linejoin="round"/>
<path id="Vector_2" d="M10.5434 7.7222H30.6305C30.6305 7.7222 33.5 7.7222 33.5 10.6111V23.6111C33.5 23.6111 33.5 26.5 30.6305 26.5H10.5434C10.5434 26.5 7.67383 26.5 7.67383 23.6111V10.6111C7.67383 10.6111 7.67383 7.7222 10.5434 7.7222Z" stroke="var(--stroke-0, #151419)" stroke-linecap="round" stroke-linejoin="round"/>
<path id="Vector_3" d="M11.9785 22.1666L16.6789 12.7012C16.7755 12.5071 16.9238 12.344 17.1073 12.23C17.2907 12.1159 17.5021 12.0555 17.7177 12.0555C17.9367 12.0555 18.152 12.1124 18.3428 12.2207C18.5336 12.329 18.6933 12.4851 18.8067 12.6737L22.7681 19.2777L24.4612 16.9666C24.5941 16.7865 24.7673 16.6403 24.9667 16.54C25.1661 16.4396 25.3861 16.3878 25.609 16.3888C25.8246 16.3889 26.036 16.4493 26.2194 16.5633C26.4029 16.6773 26.5512 16.8405 26.6478 17.0345L29.196 22.1666H11.9785Z" stroke="var(--stroke-0, #151419)" stroke-linecap="round" stroke-linejoin="round"/>
</g>
</svg>
